<svg width="108" height="108" viewBox="0 0 108 108" fill="none" xmlns="http://www.w3.org/2000/svg">
<g filter="url(#filter0_d_1_424)">
<rect x="32" y="20" width="44" height="44" rx="12" fill="white"/>
</g>
<path opacity="0.4" d="M60.47 46.83L60.86 49.99C60.96 50.82 60.07 51.4 59.36 50.97L55.17 48.48C54.71 48.48 54.26 48.45 53.82 48.39C54.56 47.52 55 46.42 55 45.23C55 42.39 52.54 40.09 49.5 40.09C48.34 40.09 47.27 40.42 46.38 41C46.35 40.75 46.34 40.5 46.34 40.24C46.34 35.69 50.29 32 55.17 32C60.05 32 64 35.69 64 40.24C64 42.94 62.61 45.33 60.47 46.83Z" fill="#20BFB6"/>
<path d="M55 45.23C55 46.42 54.56 47.52 53.82 48.39C52.83 49.59 51.26 50.36 49.5 50.36L46.89 51.91C46.45 52.18 45.89 51.81 45.95 51.3L46.2 49.33C44.86 48.4 44 46.91 44 45.23C44 43.47 44.94 41.92 46.38 41C47.27 40.42 48.34 40.09 49.5 40.09C52.54 40.09 55 42.39 55 45.23Z" fill="#20BFB6"/>
<defs>
<filter id="filter0_d_1_424" x="0" y="0" width="108" height="108" filterUnits="userSpaceOnUse" color-interpolation-filters="sRGB">
<feFlood flood-opacity="0" result="BackgroundImageFix"/>
<feColorMatrix in="SourceAlpha" type="matrix" values="0 0 0 0 0 0 0 0 0 0 0 0 0 0 0 0 0 0 127 0" result="hardAlpha"/>
<feOffset dy="12"/>
<feGaussianBlur stdDeviation="16"/>
<feComposite in2="hardAlpha" operator="out"/>
<feColorMatrix type="matrix" values="0 0 0 0 0.662188 0 0 0 0 0.662188 0 0 0 0 0.679167 0 0 0 0.16 0"/>
<feBlend mode="normal" in2="BackgroundImageFix" result="effect1_dropShadow_1_424"/>
<feBlend mode="normal" in="SourceGraphic" in2="effect1_dropShadow_1_424" result="shape"/>
</filter>
</defs>
</svg>
